<?xml version="1.0" encoding="UTF-8" standalone="no"?>
<!DOCTYPE svg PUBLIC "-//W3C//DTD SVG 1.1//EN"
 "http://www.w3.org/Graphics/SVG/1.1/DTD/svg11.dtd">
<!-- Generated by graphviz version 14.1.4 (20260321.0153)
 -->
<!-- Title: EtatJeu Pages: 1 -->
<svg width="326pt" height="102pt"
 viewBox="0.00 0.00 326.00 102.00" xmlns="http://www.w3.org/2000/svg" xmlns:xlink="http://www.w3.org/1999/xlink">

<svg id="main" version="1.1" xmlns="http://www.w3.org/2000/svg" xmlns:xlink="http://www.w3.org/1999/xlink" xml:space="preserve">

<style type="text/css"><![CDATA[
.node, .edge {opacity: 0.7;}
.node.selected, .edge.selected {opacity: 1;}
.edge:hover path { stroke: red; }
.edge:hover polygon { stroke: red; fill: red; }
]]></style>
<script type="application/ecmascript" xlink:href="svg.min.js"/>
<svg id="graph" class="graph">
<g id="graph0" class="graph" transform="scale(1 1) rotate(0) translate(4 98)">
<title>EtatJeu</title>
<!-- Node1 -->
<g id="Node000001" class="node">
<title>Node1</title>
<g id="a_Node000001"><a xlink:title=" ">
<polygon fill="#999999" stroke="#666666" points="172.5,-20 122.75,-20 122.75,0 172.5,0 172.5,-20"/>
<text xml:space="preserve" text-anchor="middle" x="147.62" y="-6.5" font-family="Helvetica,sans-Serif" font-size="10.00">EtatJeu</text>
</a>
</g>
</g>
<!-- Node2 -->
<g id="Node000002" class="node">
<title>Node2</title>
<g id="a_Node000002"><a xlink:href="struct_joueur.html" target="_top" xlink:title=" ">
<polygon fill="white" stroke="#bfbfbf" points="45.25,-94 0,-94 0,-74 45.25,-74 45.25,-94"/>
<text xml:space="preserve" text-anchor="middle" x="22.62" y="-80.5" font-family="Helvetica,sans-Serif" font-size="10.00">Joueur</text>
</a>
</g>
</g>
<!-- Node2&#45;&gt;Node1 -->
<g id="edge1_Node000001_Node000002" class="edge">
<title>Node2&#45;&gt;Node1</title>
<g id="a_edge1_Node000001_Node000002"><a xlink:title=" ">
<path fill="none" stroke="#9a32cd" stroke-dasharray="5,2" d="M35.15,-64.6C42.2,-55.47 51.72,-44.93 62.38,-38 80.72,-26.06 104.72,-19.08 122.58,-15.22"/>
<polygon fill="#9a32cd" stroke="#9a32cd" points="32.46,-62.35 29.42,-72.5 38.13,-66.46 32.46,-62.35"/>
</a>
</g>
<text xml:space="preserve" text-anchor="start" x="65.38" y="-43.25" font-family="Helvetica,sans-Serif" font-size="10.00" fill="grey">joueur</text>
</g>
<!-- Node3 -->
<g id="Node000003" class="node">
<title>Node3</title>
<g id="a_Node000003"><a xlink:href="struct_bulle.html" target="_top" xlink:title=" ">
<polygon fill="white" stroke="#bfbfbf" points="101.5,-94 63.75,-94 63.75,-74 101.5,-74 101.5,-94"/>
<text xml:space="preserve" text-anchor="middle" x="82.62" y="-80.5" font-family="Helvetica,sans-Serif" font-size="10.00">Bulle</text>
</a>
</g>
</g>
<!-- Node3&#45;&gt;Node1 -->
<g id="edge2_Node000001_Node000003" class="edge">
<title>Node3&#45;&gt;Node1</title>
<g id="a_edge2_Node000001_Node000003"><a xlink:title=" ">
<path fill="none" stroke="#9a32cd" stroke-dasharray="5,2" d="M93.09,-63.99C98.23,-55.55 104.87,-45.78 112.12,-38 118.25,-31.43 126.11,-25.27 132.88,-20.5"/>
<polygon fill="#9a32cd" stroke="#9a32cd" points="90.2,-62.01 88.22,-72.42 96.26,-65.52 90.2,-62.01"/>
</a>
</g>
<text xml:space="preserve" text-anchor="start" x="115.12" y="-43.25" font-family="Helvetica,sans-Serif" font-size="10.00" fill="grey">bulles</text>
</g>
<!-- Node4 -->
<g id="Node000004" class="node">
<title>Node4</title>
<g id="a_Node000004"><a xlink:href="struct_projectile.html" target="_top" xlink:title=" ">
<polygon fill="white" stroke="#bfbfbf" points="175.88,-94 119.38,-94 119.38,-74 175.88,-74 175.88,-94"/>
<text xml:space="preserve" text-anchor="middle" x="147.62" y="-80.5" font-family="Helvetica,sans-Serif" font-size="10.00">Projectile</text>
</a>
</g>
</g>
<!-- Node4&#45;&gt;Node1 -->
<g id="edge3_Node000001_Node000004" class="edge">
<title>Node4&#45;&gt;Node1</title>
<g id="a_edge3_Node000001_Node000004"><a xlink:title=" ">
<path fill="none" stroke="#9a32cd" stroke-dasharray="5,2" d="M147.62,-62.18C147.62,-48.29 147.62,-30.71 147.62,-20.19"/>
<polygon fill="#9a32cd" stroke="#9a32cd" points="144.13,-62.07 147.63,-72.07 151.13,-62.07 144.13,-62.07"/>
</a>
</g>
<text xml:space="preserve" text-anchor="start" x="150.62" y="-43.25" font-family="Helvetica,sans-Serif" font-size="10.00" fill="grey">projectiles</text>
</g>
<!-- Node5 -->
<g id="Node000005" class="node">
<title>Node5</title>
<g id="a_Node000005"><a xlink:href="struct_bonus_arme.html" target="_top" xlink:title=" ">
<polygon fill="white" stroke="#bfbfbf" points="261.12,-94 194.12,-94 194.12,-74 261.12,-74 261.12,-94"/>
<text xml:space="preserve" text-anchor="middle" x="227.62" y="-80.5" font-family="Helvetica,sans-Serif" font-size="10.00">BonusArme</text>
</a>
</g>
</g>
<!-- Node5&#45;&gt;Node1 -->
<g id="edge4_Node000001_Node000005" class="edge">
<title>Node5&#45;&gt;Node1</title>
<g id="a_edge4_Node000001_Node000005"><a xlink:title=" ">
<path fill="none" stroke="#9a32cd" stroke-dasharray="5,2" d="M219.42,-63.34C215.09,-54.75 209.12,-45.05 201.62,-38 193.46,-30.31 182.69,-24.33 172.91,-19.98"/>
<polygon fill="#9a32cd" stroke="#9a32cd" points="216.17,-64.65 223.51,-72.3 222.54,-61.75 216.17,-64.65"/>
</a>
</g>
<text xml:space="preserve" text-anchor="start" x="218.37" y="-43.25" font-family="Helvetica,sans-Serif" font-size="10.00" fill="grey">bonus</text>
</g>
<!-- Node6 -->
<g id="Node000006" class="node">
<title>Node6</title>
<g id="a_Node000006"><a xlink:href="struct_boss.html" target="_top" xlink:title=" ">
<polygon fill="white" stroke="#bfbfbf" points="317.88,-94 279.38,-94 279.38,-74 317.88,-74 317.88,-94"/>
<text xml:space="preserve" text-anchor="middle" x="298.62" y="-80.5" font-family="Helvetica,sans-Serif" font-size="10.00">Boss</text>
</a>
</g>
</g>
<!-- Node6&#45;&gt;Node1 -->
<g id="edge5_Node000001_Node000006" class="edge">
<title>Node6&#45;&gt;Node1</title>
<g id="a_edge5_Node000001_Node000006"><a xlink:title=" ">
<path fill="none" stroke="#9a32cd" stroke-dasharray="5,2" d="M283.88,-65C275.36,-55.68 263.91,-44.85 251.62,-38 226.86,-24.19 194.84,-17.26 172.91,-13.91"/>
<polygon fill="#9a32cd" stroke="#9a32cd" points="281.17,-67.21 290.36,-72.47 286.45,-62.62 281.17,-67.21"/>
</a>
</g>
<text xml:space="preserve" text-anchor="start" x="277.19" y="-43.25" font-family="Helvetica,sans-Serif" font-size="10.00" fill="grey">boss</text>
</g>
</g>
</svg>
</svg>

<style type='text/css'>
<![CDATA[
[data-mouse-over-selected='false'] { opacity: 0.7; }
[data-mouse-over-selected='true']  { opacity: 1.0; }
]]>
</style>
<script type="application/ecmascript"><![CDATA[
document.addEventListener('DOMContentLoaded', (event) => {
  highlightEdges();
  highlightAdjacentNodes();
});
]]></script>
</svg>
